<mxfile host="Electron" modified="2025-10-12T16:56:45.612Z" agent="Mozilla/5.0 (Macintosh; Intel Mac OS X 10_15_7) AppleWebKit/537.36 (KHTML, like Gecko) draw.io/21.1.2 Chrome/106.0.5249.199 Electron/21.4.3 Safari/537.36" version="21.1.2" etag="ZHyzADo1FsgSlpGnxden" type="device">
  <diagram id="dev-tube" name="Feature→Prod Tube Map (LTR)">
    <mxGraphModel dx="3354" dy="1394" grid="1" gridSize="10" guides="1" tooltips="1" connect="1" arrows="1" fold="1" page="1" pageScale="1" pageWidth="2600" pageHeight="1400" math="0" shadow="0">
      <root>
        <mxCell id="0" />
        <mxCell id="1" parent="0" />
        <mxCell id="3" value="Feature Branch (feat/* | fix/*)" style="shape=swimlane;rounded=1;swimlaneFillColor=#f8faff;horizontal=1;startSize=24;" parent="1" vertex="1">
          <mxGeometry x="20" y="20" width="2460" height="170" as="geometry" />
        </mxCell>
        <mxCell id="10" value="Start feature" style="shape=rectangle;rounded=1;whiteSpace=wrap;fillColor=#ffffff;strokeColor=#000000;" parent="3" vertex="1">
          <mxGeometry x="60" y="40" width="180" height="50" as="geometry" />
        </mxCell>
        <mxCell id="11" value="PR → base develop&#xa;(Lint/SAST, Unit, CDC)" style="shape=rectangle;rounded=1;whiteSpace=wrap;fillColor=#ffffff;strokeColor=#000000;" parent="3" vertex="1">
          <mxGeometry x="270" y="40" width="260" height="60" as="geometry" />
        </mxCell>
        <mxCell id="12" value="Merge to develop" style="shape=rectangle;rounded=1;whiteSpace=wrap;fillColor=#ffffff;strokeColor=#000000;" parent="3" vertex="1">
          <mxGeometry x="560" y="40" width="200" height="50" as="geometry" />
        </mxCell>
        <mxCell id="13" style="endArrow=block;rounded=0;strokeWidth=4;" parent="3" source="10" target="11" edge="1">
          <mxGeometry width="160" height="60" relative="1" as="geometry" />
        </mxCell>
        <mxCell id="14" style="endArrow=block;rounded=0;strokeWidth=4;" parent="3" source="11" target="12" edge="1">
          <mxGeometry width="160" height="60" relative="1" as="geometry" />
        </mxCell>
        <mxCell id="4" value="Develop (integration)" style="shape=swimlane;rounded=1;swimlaneFillColor=#f8faff;horizontal=1;startSize=24;" parent="1" vertex="1">
          <mxGeometry x="20" y="206" width="2460" height="170" as="geometry" />
        </mxCell>
        <mxCell id="15" value="Build image &amp; push&#xa;capture DIGEST" style="shape=rectangle;rounded=1;whiteSpace=wrap;fillColor=#ffffff;strokeColor=#000000;" parent="4" vertex="1">
          <mxGeometry x="270" y="40" width="260" height="60" as="geometry" />
        </mxCell>
        <mxCell id="16" value="Deploy to SIT (by DIGEST)&#xa;BDD smoke + contracts" style="shape=rectangle;rounded=1;whiteSpace=wrap;fillColor=#ffffff;strokeColor=#000000;" parent="4" vertex="1">
          <mxGeometry x="560" y="35" width="300" height="70" as="geometry" />
        </mxCell>
        <mxCell id="17" style="endArrow=block;rounded=0;strokeWidth=4;" parent="4" source="15" target="16" edge="1">
          <mxGeometry width="160" height="60" relative="1" as="geometry" />
        </mxCell>
        <mxCell id="39" value="Auto PR: release/x.y → develop (sync)" style="shape=rectangle;rounded=1;whiteSpace=wrap;fillColor=#ffffff;strokeColor=#000000;" parent="4" vertex="1">
          <mxGeometry x="2190" y="40" width="340" height="60" as="geometry" />
        </mxCell>
        <mxCell id="5" value="Release/x.y (stabilization)" style="shape=swimlane;rounded=1;swimlaneFillColor=#f8faff;horizontal=1;startSize=24;" parent="1" vertex="1">
          <mxGeometry x="20" y="392" width="2460" height="170" as="geometry" />
        </mxCell>
        <mxCell id="19" value="Cut release/x.y&#xa;(freeze features)" style="shape=rectangle;rounded=1;whiteSpace=wrap;fillColor=#ffffff;strokeColor=#000000;" parent="5" vertex="1">
          <mxGeometry x="660" y="40" width="260" height="60" as="geometry" />
        </mxCell>
        <mxCell id="20" value="Build NEW image &amp; push&#xa;capture DIGEST" style="shape=rectangle;rounded=1;whiteSpace=wrap;fillColor=#ffffff;strokeColor=#000000;" parent="5" vertex="1">
          <mxGeometry x="950" y="40" width="280" height="60" as="geometry" />
        </mxCell>
        <mxCell id="21" value="Preprod deploy (by DIGEST)&#xa;FULL BDD / regression" style="shape=rectangle;rounded=1;whiteSpace=wrap;fillColor=#ffffff;strokeColor=#000000;" parent="5" vertex="1">
          <mxGeometry x="1260" y="35" width="320" height="70" as="geometry" />
        </mxCell>
        <mxCell id="22" value="Extended checks&#xa;perf-smoke, migration dry-run" style="shape=rectangle;rounded=1;whiteSpace=wrap;fillColor=#ffffff;strokeColor=#000000;" parent="5" vertex="1">
          <mxGeometry x="1610" y="40" width="320" height="60" as="geometry" />
        </mxCell>
        <mxCell id="23" style="endArrow=block;rounded=0;strokeWidth=4;" parent="5" source="19" target="20" edge="1">
          <mxGeometry width="160" height="60" relative="1" as="geometry" />
        </mxCell>
        <mxCell id="24" style="endArrow=block;rounded=0;strokeWidth=4;" parent="5" source="20" target="21" edge="1">
          <mxGeometry width="160" height="60" relative="1" as="geometry" />
        </mxCell>
        <mxCell id="25" style="endArrow=block;rounded=0;strokeWidth=4;" parent="5" source="21" target="22" edge="1">
          <mxGeometry width="160" height="60" relative="1" as="geometry" />
        </mxCell>
        <mxCell id="28" value="Bug fix → rebuild &amp; test" style="shape=rectangle;rounded=1;whiteSpace=wrap;fillColor=#ffffff;strokeColor=#000000;" parent="5" vertex="1">
          <mxGeometry x="2020" y="40" width="260" height="60" as="geometry" />
        </mxCell>
        <mxCell id="31" value="if issues" style="endArrow=block;dashed=1;strokeWidth=2;" parent="5" source="22" target="28" edge="1">
          <mxGeometry width="160" height="60" relative="1" as="geometry" />
        </mxCell>
        <mxCell id="6" value="Registry (image tags ↔ digest)" style="shape=swimlane;rounded=1;swimlaneFillColor=#f8faff;horizontal=1;startSize=24;" parent="1" vertex="1">
          <mxGeometry x="20" y="578" width="2460" height="170" as="geometry" />
        </mxCell>
        <mxCell id="18" value="repo/svc:sha-&lt;gitsha&gt;&#xa;→ repo/svc@sha256:ABC…" style="shape=rectangle;rounded=1;whiteSpace=wrap;fillColor=#ffffff;strokeColor=#000000;" parent="6" vertex="1">
          <mxGeometry x="270" y="40" width="300" height="60" as="geometry" />
        </mxCell>
        <mxCell id="26" value="Tag digest as :vX.Y.Z-rc.1&#xa;(no rebuild)" style="shape=rectangle;rounded=1;whiteSpace=wrap;fillColor=#ffffff;strokeColor=#000000;" parent="6" vertex="1">
          <mxGeometry x="950" y="40" width="300" height="60" as="geometry" />
        </mxCell>
        <mxCell id="30" value="Tag NEW digest :vX.Y.Z-rc.2" style="shape=rectangle;rounded=1;whiteSpace=wrap;fillColor=#ffffff;strokeColor=#000000;" parent="6" vertex="1">
          <mxGeometry x="2200" y="40" width="280" height="60" as="geometry" />
        </mxCell>
        <mxCell id="33" style="endArrow=block;dashed=1;strokeWidth=2;" parent="6" source="26" target="30" edge="1">
          <mxGeometry width="160" height="60" relative="1" as="geometry" />
        </mxCell>
        <mxCell id="35" value="Tag SAME digest :vX.Y.Z&#xa;(no rebuild)" style="shape=rectangle;rounded=1;whiteSpace=wrap;fillColor=#ffffff;strokeColor=#000000;" parent="6" vertex="1">
          <mxGeometry x="1860" y="40" width="300" height="60" as="geometry" />
        </mxCell>
        <mxCell id="37" style="endArrow=block;strokeWidth=2;rounded=0;" parent="6" source="30" target="35" edge="1">
          <mxGeometry width="160" height="60" relative="1" as="geometry" />
        </mxCell>
        <mxCell id="47" value="Deploy by digest. Tags are pointers." style="shape=note;whiteSpace=wrap;rounded=1;fillColor=#fff2cc;strokeColor=#d6b656;" parent="6" vertex="1">
          <mxGeometry x="1990" y="-20" width="320" height="60" as="geometry" />
        </mxCell>
        <mxCell id="7" value="Git Tags (RC &amp; final)" style="shape=swimlane;rounded=1;swimlaneFillColor=#f8faff;horizontal=1;startSize=24;" parent="1" vertex="1">
          <mxGeometry x="20" y="764" width="2460" height="170" as="geometry" />
        </mxCell>
        <mxCell id="27" value="Git tag vX.Y.Z-rc.1&#xa;(annotated on release commit)" style="shape=rectangle;rounded=1;whiteSpace=wrap;fillColor=#ffffff;strokeColor=#000000;" parent="7" vertex="1">
          <mxGeometry x="950" y="40" width="320" height="60" as="geometry" />
        </mxCell>
        <mxCell id="29" value="Git tag vX.Y.Z-rc.2" style="shape=rectangle;rounded=1;whiteSpace=wrap;fillColor=#ffffff;strokeColor=#000000;" parent="7" vertex="1">
          <mxGeometry x="2200" y="40" width="220" height="60" as="geometry" />
        </mxCell>
        <mxCell id="32" value="RC evolves" style="endArrow=block;dashed=1;strokeWidth=2;" parent="7" source="27" target="29" edge="1">
          <mxGeometry width="160" height="60" relative="1" as="geometry" />
        </mxCell>
        <mxCell id="34" value="Git tag vX.Y.Z&#xa;(on approved RC commit)" style="shape=rectangle;rounded=1;whiteSpace=wrap;fillColor=#ffffff;strokeColor=#000000;" parent="7" vertex="1">
          <mxGeometry x="1860" y="40" width="300" height="60" as="geometry" />
        </mxCell>
        <mxCell id="36" value="approved" style="endArrow=block;strokeWidth=2;rounded=0;" parent="7" source="29" target="34" edge="1">
          <mxGeometry width="160" height="60" relative="1" as="geometry" />
        </mxCell>
        <mxCell id="40" value="triggers" style="endArrow=block;dashed=1;strokeWidth=2;" parent="7" source="34" target="38" edge="1">
          <mxGeometry width="160" height="60" relative="1" as="geometry" />
        </mxCell>
        <mxCell id="41" style="endArrow=block;dashed=1;strokeWidth=2;" parent="7" source="34" target="39" edge="1">
          <mxGeometry width="160" height="60" relative="1" as="geometry" />
        </mxCell>
        <mxCell id="48" value="Final tag does NOT rebuild." style="shape=note;whiteSpace=wrap;rounded=1;fillColor=#fff2cc;strokeColor=#d6b656;" parent="7" vertex="1">
          <mxGeometry x="2090" y="-20" width="260" height="60" as="geometry" />
        </mxCell>
        <mxCell id="8" value="Environments (SIT → Preprod → Prod)" style="shape=swimlane;rounded=1;swimlaneFillColor=#f8faff;horizontal=1;startSize=24;" parent="1" vertex="1">
          <mxGeometry x="20" y="950" width="2460" height="170" as="geometry" />
        </mxCell>
        <mxCell id="42" value="SIT (already on develop)&#xa;verify same DIGEST" style="shape=rectangle;rounded=1;whiteSpace=wrap;fillColor=#ffffff;strokeColor=#000000;" parent="8" vertex="1">
          <mxGeometry x="1210" y="65" width="300" height="70" as="geometry" />
        </mxCell>
        <mxCell id="43" value="Preprod (already on release)&#xa;verify same DIGEST" style="shape=rectangle;rounded=1;whiteSpace=wrap;fillColor=#ffffff;strokeColor=#000000;" parent="8" vertex="1">
          <mxGeometry x="1540" y="65" width="340" height="70" as="geometry" />
        </mxCell>
        <mxCell id="44" value="Prod progressive deploy&#xa;(canary→100%) using SAME DIGEST" style="shape=rectangle;rounded=1;whiteSpace=wrap;fillColor=#ffffff;strokeColor=#000000;" parent="8" vertex="1">
          <mxGeometry x="1900" y="60" width="420" height="90" as="geometry" />
        </mxCell>
        <mxCell id="45" style="endArrow=block;strokeWidth=2;rounded=0;" parent="8" source="42" target="43" edge="1">
          <mxGeometry width="160" height="60" relative="1" as="geometry" />
        </mxCell>
        <mxCell id="46" style="endArrow=block;strokeWidth=2;rounded=0;" parent="8" source="43" target="44" edge="1">
          <mxGeometry width="160" height="60" relative="1" as="geometry" />
        </mxCell>
        <mxCell id="9" value="Main (prod history)" style="shape=swimlane;rounded=1;swimlaneFillColor=#f8faff;horizontal=1;startSize=24;" parent="1" vertex="1">
          <mxGeometry x="20" y="1136" width="2460" height="170" as="geometry" />
        </mxCell>
        <mxCell id="38" value="Auto PR: release/x.y → main (publish)" style="shape=rectangle;rounded=1;whiteSpace=wrap;fillColor=#ffffff;strokeColor=#000000;" parent="9" vertex="1">
          <mxGeometry x="2190" y="40" width="360" height="60" as="geometry" />
        </mxCell>
      </root>
    </mxGraphModel>
  </diagram>
</mxfile>
